<svg aria-hidden="true" style="position: absolute; width: 0; height: 0; overflow: hidden;" version="1.1" xmlns="http://www.w3.org/2000/svg" xmlns:xlink="http://www.w3.org/1999/xlink">
<defs>
<symbol id="maximize-circle" viewBox="0 0 16 16">
<path fill="none" stroke-linecap="round" stroke-linejoin="round" d="M11.333 2H14v2.667M10 6l4-4M4.667 14H2v-2.667M6 10l-4 4M9.347 1.467A6.884 6.884 0 0 0 8 1.333a6.67 6.67 0 0 0-6.533 8M6.653 14.533c.434.087.887.134 1.347.134a6.67 6.67 0 0 0 6.533-8"/>
</symbol>
<symbol id="global-edit" viewBox="0 0 16 16">
<g fill="none" stroke-linecap="round" stroke-linejoin="round"><path d="M14.667 8A6.67 6.67 0 0 0 8 1.333 6.67 6.67 0 0 0 1.333 8 6.67 6.67 0 0 0 8 14.667"/><path d="M5.333 2H6a18.949 18.949 0 0 0 0 12h-.667M10 2c.647 1.947.973 3.973.973 6"/><path d="M2 10.667V10c1.947.647 3.973.973 6 .973M2 6c3.893-1.3 8.107-1.3 12 0"/><g stroke-miterlimit="10"><path d="m12.807 10.493-2.36 2.36a.82.82 0 0 0-.2.394l-.127.9c-.047.326.18.553.507.506l.9-.126a.794.794 0 0 0 .393-.2l2.36-2.36c.407-.407.6-.88 0-1.48-.593-.594-1.067-.4-1.473.006Z"/><path d="M12.467 10.833c.2.72.76 1.28 1.48 1.48"/></g></g>
</symbol>
<symbol id="cpu-charge" viewBox="0 0 16 16">
<g fill="none" stroke-linecap="round" stroke-linejoin="round"><path d="M6.4 13.333h3.2c2.667 0 3.733-1.066 3.733-3.733V6.4c0-2.667-1.066-3.733-3.733-3.733H6.4c-2.667 0-3.733 1.066-3.733 3.733v3.2c0 2.667 1.066 3.733 3.733 3.733Z"/><path d="M7 11.333h2c1.667 0 2.333-.666 2.333-2.333V7c0-1.667-.666-2.333-2.333-2.333H7c-1.667 0-2.333.666-2.333 2.333v2c0 1.667.666 2.333 2.333 2.333ZM5.34 2.667V1.333M8 2.667V1.333M10.667 2.667V1.333M13.333 5.333h1.334M13.333 8h1.334M13.333 10.667h1.334M10.667 13.333v1.334M8.007 13.333v1.334M5.34 13.333v1.334M1.333 5.333h1.334M1.333 8h1.334M1.333 10.667h1.334"/><path d="M8 6.467 7.373 7.56c-.14.24-.026.44.254.44h.746c.28 0 .394.2.254.44L8 9.533"/></g>
</symbol>
<symbol id="ranking" viewBox="0 0 16 16">
<g fill="none" stroke-linecap="round" stroke-linejoin="round"><path d="M5.78 9.333H2.667c-.734 0-1.334.6-1.334 1.334v4H5.78V9.333Z"/><path d="M8.887 6.667h-1.78c-.734 0-1.334.6-1.334 1.333v6.667h4.447V8c0-.733-.593-1.333-1.333-1.333ZM13.333 11.333H10.22v3.334h4.447v-2c0-.734-.6-1.334-1.334-1.334Z"/><path d="m8.347 1.38.353.707c.047.1.173.193.28.206l.64.107c.407.067.507.367.213.653l-.5.5a.426.426 0 0 0-.106.36l.14.614c.113.486-.147.673-.574.42l-.6-.354a.412.412 0 0 0-.393 0l-.6.354c-.427.253-.687.066-.573-.42l.14-.614a.42.42 0 0 0-.107-.36l-.493-.493c-.294-.293-.2-.587.213-.653l.64-.107a.444.444 0 0 0 .28-.207l.353-.706c.194-.387.5-.387.694-.007Z"/></g>
</symbol>
<symbol id="arrow-right" viewBox="0 0 36 36">
<path fill="none" stroke-linecap="round" stroke-linejoin="round" stroke-miterlimit="10" stroke-width="1.5" d="m21.646 8.893 9.105 9.105-9.105 9.105M5.251 17.999h25.245"/>
</symbol>
<symbol id="menu-close" viewBox="0 0 20 20">
<path stroke-linecap="round" stroke-linejoin="round" stroke-width="1.5" d="m5.833 5.833 8.334 8.334m-8.334 0 8.334-8.334"/>
</symbol>
<symbol id="menu-facebook" viewBox="0 0 24 24">
<path d="M20.904 3.094C19.565 1.762 17.583 1.25 15 1.25H9c-2.585 0-4.566.513-5.906 1.844C1.762 4.434 1.25 6.415 1.25 9v6c0 2.583.513 4.565 1.844 5.904C4.434 22.237 6.415 22.75 9 22.748l6 .002v-.002c2.583.002 4.565-.511 5.904-1.844 1.333-1.339 1.846-3.321 1.844-5.904l.002-6c0-2.585-.513-4.566-1.846-5.906zM21.25 15c-.002 2.413-.488 3.934-1.406 4.844-.91.918-2.431 1.404-4.844 1.406h-1V14.7h2.2c.1 0 .3-.101.3-.2l.4-1.9c0-.2-.101-.399-.301-.399H14V9.3c0-.2.1-.3.3-.3h2.4c.2 0 .3-.1.3-.3V6.3c0-.2-.1-.3-.3-.3H14c-1.7 0-3 1.3-3 3v3.3H9.3c-.2 0-.3.1-.3.3v1.9c0 .2.1.3.3.3H11v6.45H9c-2.415-.002-3.934-.488-4.846-1.406-.916-.91-1.404-2.431-1.404-4.844V9c0-2.415.488-3.934 1.404-4.846C5.066 3.238 6.585 2.75 9 2.75h6c2.413 0 3.934.488 4.844 1.404.918.912 1.404 2.431 1.406 4.846v6z"/>
</symbol>
<symbol id="menu-instagram" viewBox="0 0 24 24">
<path d="M20.904 3.094C19.565 1.762 17.583 1.25 15 1.25H9c-2.585 0-4.566.513-5.906 1.844C1.762 4.434 1.25 6.415 1.25 9v6c0 2.583.513 4.565 1.844 5.904C4.434 22.237 6.415 22.75 9 22.748v.002h6c2.583 0 4.565-.513 5.904-1.846 1.333-1.339 1.846-3.321 1.844-5.904l.002-6c0-2.585-.513-4.566-1.846-5.906zM21.25 15c-.002 2.413-.488 3.934-1.406 4.844-.91.918-2.431 1.404-4.844 1.406H9c-2.415-.002-3.934-.488-4.846-1.406-.916-.91-1.404-2.431-1.404-4.844V9c0-2.415.488-3.934 1.404-4.846C5.066 3.238 6.585 2.75 9 2.75h6c2.413 0 3.934.488 4.844 1.404.918.912 1.404 2.431 1.406 4.846v6zM12 7.75a4.25 4.25 0 1 0 0 8.5 4.25 4.25 0 0 0 0-8.5zm0 7A2.751 2.751 0 1 1 14.75 12 2.756 2.756 0 0 1 12 14.75zM17.648 6h-.012a1 1 0 1 0 0 2h.012a1 1 0 0 0 0-2z"/>
</symbol>
<symbol id="q-plus" viewBox="0 0 16 16">
<g stroke-linecap="round" stroke-linejoin="round" stroke-width="1.5"><path d="M4 8h8M8 12V4"/></g>
</symbol>
<symbol id="q-minus" viewBox="0 0 16 16">
<path stroke-linecap="round" stroke-linejoin="round" stroke-width="1.5" d="M4 8h8"/>
</symbol>
<symbol id="call" viewBox="0 0 24 24">
<path d="M17.449 22.748c-1.14 0-2.33-.268-3.555-.79a18.114 18.114 0 0 1-3.587-2.064 29.45 29.45 0 0 1-3.37-2.876 28.932 28.932 0 0 1-2.865-3.361c-.848-1.175-1.536-2.363-2.044-3.555-.511-1.215-.778-2.405-.778-3.562 0-.768.136-1.515.412-2.205a5.367 5.367 0 0 1 1.322-1.931c.74-.735 1.65-1.158 2.605-1.154.387 0 .776.083 1.124.249.368.167.716.44.967.807l2.318 3.267c.208.286.369.568.482.842.119.284.197.583.2.906 0 .387-.118.768-.307 1.081-.175.304-.406.59-.673.857l-.693.72.028.068c.146.256.422.641.811 1.101.443.51.912 1.029 1.41 1.536.533.522 1.04 1 1.548 1.431.472.4.856.667 1.121.813l.067.028.687-.678c.286-.284.576-.522.858-.671a2.103 2.103 0 0 1 1.104-.319c.294 0 .599.064.892.186.288.117.56.276.852.474l3.303 2.345c.35.238.64.566.818.978.126.313.217.669.215 1.059 0 .471-.105.952-.323 1.412a4.85 4.85 0 0 1-.801 1.199c-.554.612-1.192 1.079-1.908 1.371a5.762 5.762 0 0 1-2.222.437l-.018-.001zM4.024 3.485a3.847 3.847 0 0 0-.967 1.402A4.395 4.395 0 0 0 2.75 6.54c0 .922.212 1.912.659 2.977.455 1.068 1.087 2.164 1.877 3.261a27.603 27.603 0 0 0 2.711 3.18 28.321 28.321 0 0 0 3.194 2.726 16.672 16.672 0 0 0 3.292 1.896c1.074.46 2.064.672 2.966.672a4.288 4.288 0 0 0 1.666-.325c.498-.206.94-.52 1.369-.99.238-.264.415-.537.558-.836.123-.262.177-.523.179-.77a1.291 1.291 0 0 0-.097-.478c-.052-.111-.123-.206-.299-.33l-3.297-2.343a3.131 3.131 0 0 0-.563-.314.827.827 0 0 0-.325-.074c-.111.002-.184.019-.364.124-.132.067-.323.21-.541.43l-.758.749a1.315 1.315 0 0 1-.938.386 1.43 1.43 0 0 1-.542-.1c-.095-.039-.162-.074-.169-.074l-.03-.014-.039-.021c-.414-.219-.875-.546-1.424-1.011-.55-.466-1.083-.97-1.641-1.516a35.932 35.932 0 0 1-1.486-1.62c-.461-.545-.794-1-1.017-1.406l-.031-.058-.022-.064c.002-.002-.023-.054-.07-.177l-.016-.041-.008-.037a1.491 1.491 0 0 1-.053-.412 1.28 1.28 0 0 1 .369-.92l.77-.801c.204-.202.352-.397.449-.568a.626.626 0 0 0 .102-.321.92.92 0 0 0-.086-.328 2.596 2.596 0 0 0-.318-.549L6.451 3.166a.876.876 0 0 0-.376-.311 1.129 1.129 0 0 0-.486-.105c-.523.004-1.013.2-1.565.735z"/>
</symbol>
<symbol id="mail" viewBox="0 0 24 24">
<path d="m14.433 21.16-5.259-2.637c-.097-.054-.309-.104-.533-.102-.256-.003-.523.069-.641.14l-2.351 1.342c-.56.315-1.128.492-1.688.492a2.258 2.258 0 0 1-1.791-.84c-.43-.535-.632-1.245-.632-2.046V7.78a2.93 2.93 0 0 1 1.388-2.382L7.255 2.92c.432-.245.906-.332 1.377-.333.416.002.832.072 1.223.262l5.253 2.623c.099.053.316.107.539.105.257.002.525-.068.641-.138L18.632 4.1c.561-.323 1.135-.498 1.694-.498.692-.008 1.363.3 1.791.84.431.537.632 1.247.632 2.048v9.73a2.949 2.949 0 0 1-1.387 2.39l-4.34 2.484c-.426.233-.896.321-1.367.326a2.805 2.805 0 0 1-1.222-.26zm-4.578-3.972 5.125 2.569V7.003a2.399 2.399 0 0 1-.546-.192L9.31 4.253v12.74c.186.042.369.105.545.195zm6.624 2.489 4.133-2.366c.278-.123.674-.797.637-1.091V6.49c-.061-1.128-.404-1.356-.923-1.389-.238 0-.562.078-.946.3l-2.349 1.34a2.542 2.542 0 0 1-.552.225v12.711zM3.04 17.509c.062 1.128.401 1.354.922 1.387.235 0 .562-.08.947-.298l2.349-1.339c.177-.1.363-.174.552-.227V4.33L3.672 6.7c-.283.123-.668.79-.632 1.08v9.729z"/>
</symbol>
<symbol id="map" viewBox="0 0 24 24">
<path d="M21.135 4.138c-1.06-.984-2.518-1.39-4.136-1.388H7c-1.619-.001-3.076.404-4.136 1.388C1.802 5.12 1.244 6.615 1.25 8.5v6.999c-.006 1.886.552 3.38 1.614 4.361 1.06.982 2.518 1.39 4.136 1.388h10.012c1.613 0 3.065-.408 4.123-1.388 1.063-.981 1.62-2.476 1.614-4.361V8.5c.006-1.885-.552-3.38-1.614-4.362zm.115 11.361c-.006 1.615-.448 2.62-1.136 3.263-.69.645-1.733.985-3.115.988H7c-1.383-.003-2.425-.344-3.115-.988-.688-.643-1.13-1.647-1.136-3.263V8.5c.006-1.616.449-2.621 1.136-3.263.69-.644 1.731-.986 3.115-.987h10c1.382.002 2.425.344 3.115.988.688.642 1.13 1.647 1.136 3.263v6.998zm-4.719-7.085-3.131 2.5c-.354.286-.875.453-1.407.451-.531.002-1.053-.167-1.405-.451l-3.119-2.5a.75.75 0 1 0-.938 1.172l3.119 2.5c.677.532 1.514.775 2.343.777.827-.002 1.668-.243 2.343-.777l3.132-2.5a.75.75 0 0 0-.937-1.172z"/>
</symbol>
<symbol id="btn-arrow" viewBox="0 0 16 17">
<path fill="none" stroke-linecap="round" stroke-linejoin="round" stroke-miterlimit="10" d="M9.62 4.453 13.667 8.5 9.62 12.546M2.333 8.5h11.22"/>
</symbol>
<symbol id="link-arrow" viewBox="0 0 14 15">
<g fill="none" stroke-linecap="round" stroke-linejoin="round" stroke-miterlimit="10" stroke-width=".834"><path d="M9.276 8.31 7 10.333 4.723 8.31M7 4.667v5.61"/></g>
</symbol>
</defs>
</svg>
