<svg aria-hidden="true" style="position: absolute; width: 0; height: 0; overflow: hidden;" version="1.1" xmlns="http://www.w3.org/2000/svg" xmlns:xlink="http://www.w3.org/1999/xlink">
<defs>
<symbol id="maximize-circle" viewBox="0 0 16 16">
<path fill="none" stroke="#173D33" stroke-linecap="round" stroke-linejoin="round" d="M11.333 2H14v2.667M10 6l4-4M4.667 14H2v-2.667M6 10l-4 4M9.347 1.467A6.884 6.884 0 0 0 8 1.333a6.67 6.67 0 0 0-6.533 8M6.653 14.533c.434.087.887.134 1.347.134a6.67 6.67 0 0 0 6.533-8"/>
</symbol>
<symbol id="global-edit" viewBox="0 0 16 16">
<g fill="none" stroke="#173D33" stroke-linecap="round" stroke-linejoin="round"><path d="M14.667 8A6.67 6.67 0 0 0 8 1.333 6.67 6.67 0 0 0 1.333 8 6.67 6.67 0 0 0 8 14.667"/><path d="M5.333 2H6a18.949 18.949 0 0 0 0 12h-.667M10 2c.647 1.947.973 3.973.973 6"/><path d="M2 10.667V10c1.947.647 3.973.973 6 .973M2 6c3.893-1.3 8.107-1.3 12 0"/><g stroke-miterlimit="10"><path d="m12.807 10.493-2.36 2.36a.82.82 0 0 0-.2.394l-.127.9c-.047.326.18.553.507.506l.9-.126a.794.794 0 0 0 .393-.2l2.36-2.36c.407-.407.6-.88 0-1.48-.593-.594-1.067-.4-1.473.006Z"/><path d="M12.467 10.833c.2.72.76 1.28 1.48 1.48"/></g></g>
</symbol>
<symbol id="cpu-charge" viewBox="0 0 16 16">
<g fill="none" stroke="#173D33" stroke-linecap="round" stroke-linejoin="round"><path d="M6.4 13.333h3.2c2.667 0 3.733-1.066 3.733-3.733V6.4c0-2.667-1.066-3.733-3.733-3.733H6.4c-2.667 0-3.733 1.066-3.733 3.733v3.2c0 2.667 1.066 3.733 3.733 3.733Z"/><path d="M7 11.333h2c1.667 0 2.333-.666 2.333-2.333V7c0-1.667-.666-2.333-2.333-2.333H7c-1.667 0-2.333.666-2.333 2.333v2c0 1.667.666 2.333 2.333 2.333ZM5.34 2.667V1.333M8 2.667V1.333M10.667 2.667V1.333M13.333 5.333h1.334M13.333 8h1.334M13.333 10.667h1.334M10.667 13.333v1.334M8.007 13.333v1.334M5.34 13.333v1.334M1.333 5.333h1.334M1.333 8h1.334M1.333 10.667h1.334"/><path d="M8 6.467 7.373 7.56c-.14.24-.026.44.254.44h.746c.28 0 .394.2.254.44L8 9.533"/></g>
</symbol>
<symbol id="ranking" viewBox="0 0 16 16">
<g fill="none" stroke="#173D33" stroke-linecap="round" stroke-linejoin="round"><path d="M5.78 9.333H2.667c-.734 0-1.334.6-1.334 1.334v4H5.78V9.333Z"/><path d="M8.887 6.667h-1.78c-.734 0-1.334.6-1.334 1.333v6.667h4.447V8c0-.733-.593-1.333-1.333-1.333ZM13.333 11.333H10.22v3.334h4.447v-2c0-.734-.6-1.334-1.334-1.334Z"/><path d="m8.347 1.38.353.707c.047.1.173.193.28.206l.64.107c.407.067.507.367.213.653l-.5.5a.426.426 0 0 0-.106.36l.14.614c.113.486-.147.673-.574.42l-.6-.354a.412.412 0 0 0-.393 0l-.6.354c-.427.253-.687.066-.573-.42l.14-.614a.42.42 0 0 0-.107-.36l-.493-.493c-.294-.293-.2-.587.213-.653l.64-.107a.444.444 0 0 0 .28-.207l.353-.706c.194-.387.5-.387.694-.007Z"/></g>
</symbol>
</defs>
</svg>
