<svg aria-hidden="true" style="position: absolute; width: 0; height: 0; overflow: hidden;" version="1.1" xmlns="http://www.w3.org/2000/svg" xmlns:xlink="http://www.w3.org/1999/xlink">
<defs>
<symbol id="maximize-circle" viewBox="0 0 16 16">
<path fill="none" stroke-linecap="round" stroke-linejoin="round" d="M11.333 2H14v2.667M10 6l4-4M4.667 14H2v-2.667M6 10l-4 4M9.347 1.467A6.884 6.884 0 0 0 8 1.333a6.67 6.67 0 0 0-6.533 8M6.653 14.533c.434.087.887.134 1.347.134a6.67 6.67 0 0 0 6.533-8"/>
</symbol>
<symbol id="global-edit" viewBox="0 0 16 16">
<g fill="none" stroke-linecap="round" stroke-linejoin="round"><path d="M14.667 8A6.67 6.67 0 0 0 8 1.333 6.67 6.67 0 0 0 1.333 8 6.67 6.67 0 0 0 8 14.667"/><path d="M5.333 2H6a18.949 18.949 0 0 0 0 12h-.667M10 2c.647 1.947.973 3.973.973 6"/><path d="M2 10.667V10c1.947.647 3.973.973 6 .973M2 6c3.893-1.3 8.107-1.3 12 0"/><g stroke-miterlimit="10"><path d="m12.807 10.493-2.36 2.36a.82.82 0 0 0-.2.394l-.127.9c-.047.326.18.553.507.506l.9-.126a.794.794 0 0 0 .393-.2l2.36-2.36c.407-.407.6-.88 0-1.48-.593-.594-1.067-.4-1.473.006Z"/><path d="M12.467 10.833c.2.72.76 1.28 1.48 1.48"/></g></g>
</symbol>
<symbol id="cpu-charge" viewBox="0 0 16 16">
<g fill="none" stroke-linecap="round" stroke-linejoin="round"><path d="M6.4 13.333h3.2c2.667 0 3.733-1.066 3.733-3.733V6.4c0-2.667-1.066-3.733-3.733-3.733H6.4c-2.667 0-3.733 1.066-3.733 3.733v3.2c0 2.667 1.066 3.733 3.733 3.733Z"/><path d="M7 11.333h2c1.667 0 2.333-.666 2.333-2.333V7c0-1.667-.666-2.333-2.333-2.333H7c-1.667 0-2.333.666-2.333 2.333v2c0 1.667.666 2.333 2.333 2.333ZM5.34 2.667V1.333M8 2.667V1.333M10.667 2.667V1.333M13.333 5.333h1.334M13.333 8h1.334M13.333 10.667h1.334M10.667 13.333v1.334M8.007 13.333v1.334M5.34 13.333v1.334M1.333 5.333h1.334M1.333 8h1.334M1.333 10.667h1.334"/><path d="M8 6.467 7.373 7.56c-.14.24-.026.44.254.44h.746c.28 0 .394.2.254.44L8 9.533"/></g>
</symbol>
<symbol id="ranking" viewBox="0 0 16 16">
<g fill="none" stroke-linecap="round" stroke-linejoin="round"><path d="M5.78 9.333H2.667c-.734 0-1.334.6-1.334 1.334v4H5.78V9.333Z"/><path d="M8.887 6.667h-1.78c-.734 0-1.334.6-1.334 1.333v6.667h4.447V8c0-.733-.593-1.333-1.333-1.333ZM13.333 11.333H10.22v3.334h4.447v-2c0-.734-.6-1.334-1.334-1.334Z"/><path d="m8.347 1.38.353.707c.047.1.173.193.28.206l.64.107c.407.067.507.367.213.653l-.5.5a.426.426 0 0 0-.106.36l.14.614c.113.486-.147.673-.574.42l-.6-.354a.412.412 0 0 0-.393 0l-.6.354c-.427.253-.687.066-.573-.42l.14-.614a.42.42 0 0 0-.107-.36l-.493-.493c-.294-.293-.2-.587.213-.653l.64-.107a.444.444 0 0 0 .28-.207l.353-.706c.194-.387.5-.387.694-.007Z"/></g>
</symbol>
<symbol id="arrow-right" viewBox="0 0 36 36">
<path fill="none" stroke-linecap="round" stroke-linejoin="round" stroke-miterlimit="10" stroke-width="1.5" d="m21.646 8.893 9.105 9.105-9.105 9.105M5.251 17.999h25.245"/>
</symbol>
<symbol id="menu-close" viewBox="0 0 20 20">
<path stroke-linecap="round" stroke-linejoin="round" stroke-width="1.5" d="m5.833 5.833 8.334 8.334m-8.334 0 8.334-8.334"/>
</symbol>
<symbol id="menu-facebook" viewBox="0 0 24 24">
<path d="M20.904 3.094C19.565 1.762 17.583 1.25 15 1.25H9c-2.585 0-4.566.513-5.906 1.844C1.762 4.434 1.25 6.415 1.25 9v6c0 2.583.513 4.565 1.844 5.904C4.434 22.237 6.415 22.75 9 22.748l6 .002v-.002c2.583.002 4.565-.511 5.904-1.844 1.333-1.339 1.846-3.321 1.844-5.904l.002-6c0-2.585-.513-4.566-1.846-5.906zM21.25 15c-.002 2.413-.488 3.934-1.406 4.844-.91.918-2.431 1.404-4.844 1.406h-1V14.7h2.2c.1 0 .3-.101.3-.2l.4-1.9c0-.2-.101-.399-.301-.399H14V9.3c0-.2.1-.3.3-.3h2.4c.2 0 .3-.1.3-.3V6.3c0-.2-.1-.3-.3-.3H14c-1.7 0-3 1.3-3 3v3.3H9.3c-.2 0-.3.1-.3.3v1.9c0 .2.1.3.3.3H11v6.45H9c-2.415-.002-3.934-.488-4.846-1.406-.916-.91-1.404-2.431-1.404-4.844V9c0-2.415.488-3.934 1.404-4.846C5.066 3.238 6.585 2.75 9 2.75h6c2.413 0 3.934.488 4.844 1.404.918.912 1.404 2.431 1.406 4.846v6z"/>
</symbol>
<symbol id="menu-instagram" viewBox="0 0 24 24">
<path d="M20.904 3.094C19.565 1.762 17.583 1.25 15 1.25H9c-2.585 0-4.566.513-5.906 1.844C1.762 4.434 1.25 6.415 1.25 9v6c0 2.583.513 4.565 1.844 5.904C4.434 22.237 6.415 22.75 9 22.748v.002h6c2.583 0 4.565-.513 5.904-1.846 1.333-1.339 1.846-3.321 1.844-5.904l.002-6c0-2.585-.513-4.566-1.846-5.906zM21.25 15c-.002 2.413-.488 3.934-1.406 4.844-.91.918-2.431 1.404-4.844 1.406H9c-2.415-.002-3.934-.488-4.846-1.406-.916-.91-1.404-2.431-1.404-4.844V9c0-2.415.488-3.934 1.404-4.846C5.066 3.238 6.585 2.75 9 2.75h6c2.413 0 3.934.488 4.844 1.404.918.912 1.404 2.431 1.406 4.846v6zM12 7.75a4.25 4.25 0 1 0 0 8.5 4.25 4.25 0 0 0 0-8.5zm0 7A2.751 2.751 0 1 1 14.75 12 2.756 2.756 0 0 1 12 14.75zM17.648 6h-.012a1 1 0 1 0 0 2h.012a1 1 0 0 0 0-2z"/>
</symbol>
</defs>
</svg>
